<svg height="512pt" viewBox="0 -76 512 512" width="512pt" xmlns="http://www.w3.org/2000/svg"><path d="m296 280c5.523438 0 10-4.476562 10-10s-4.476562-10-10-10h-.003906c-5.523438 0-9.996094 4.476562-9.996094 10s4.476562 10 10 10zm0 0"/><path d="m116 120.003906c5.523438 0 10-4.476562 10-10v-.007812c0-5.523438-4.476562-9.996094-10-9.996094s-10 4.480469-10 10.003906c0 5.523438 4.480469 10 10 10zm0 0"/><path d="m462 260h-17.722656c1.113281-3.128906 1.722656-6.496094 1.722656-10v-180c0-16.542969-13.457031-30-30-30h-90v-10c0-16.542969-13.457031-30-30-30h-80c-16.542969 0-30 13.457031-30 30v10h-90c-16.542969 0-30 13.457031-30 30v180c0 3.503906.609375 6.871094 1.71875 10h-17.71875c-27.570312 0-50 22.429688-50 50s22.429688 50 50 50h412c27.570312 0 50-22.429688 50-50s-22.429688-50-50-50zm-36-190v180c0 5.511719-4.484375 10-10 10h-10v-200h10c5.515625 0 10 4.484375 10 10zm-60 190v-200h20v200zm-160-230c0-5.515625 4.484375-10 10-10h80c5.511719 0 10 4.484375 10 10v10h-100zm-120 220v-180c0-5.515625 4.488281-10 10-10h10v10c0 5.523438 4.480469 10 10 10 5.523438 0 10-4.476562 10-10v-10h20.003906v200h-20.003906v-110c0-5.523438-4.476562-10-10-10-5.519531 0-10 4.476562-10 10v110h-10c-5.511719 0-10-4.488281-10-10zm376 90h-412c-16.542969 0-30-13.457031-30-30s13.457031-30 30-30h205.996094c5.523437 0 10-4.476562 10-10s-4.476563-10-10-10h-89.996094v-200h179.996094v200h-10c-5.523438 0-10 4.476562-10 10s4.476562 10 10 10h126.003906c16.542969 0 30 13.457031 30 30s-13.457031 30-30 30zm0 0"/><path d="m67.84375 300h-17.84375c-5.523438 0-10 4.476562-10 10s4.476562 10 10 10h17.84375c5.523438 0 10-4.476562 10-10s-4.476562-10-10-10zm0 0"/><path d="m146.675781 300h-17.84375c-5.523437 0-10 4.476562-10 10s4.476563 10 10 10h17.84375c5.523438 0 10-4.476562 10-10s-4.476562-10-10-10zm0 0"/><path d="m225.507812 300h-17.847656c-5.523437 0-10 4.476562-10 10s4.476563 10 10 10h17.847656c5.523438 0 10-4.476562 10-10s-4.476562-10-10-10zm0 0"/><path d="m304.339844 300h-17.847656c-5.523438 0-10 4.476562-10 10s4.476562 10 10 10h17.847656c5.523437 0 10-4.476562 10-10s-4.476563-10-10-10zm0 0"/><path d="m383.167969 300h-17.84375c-5.523438 0-10 4.476562-10 10s4.476562 10 10 10h17.84375c5.523437 0 10-4.476562 10-10s-4.476563-10-10-10zm0 0"/><path d="m462 300h-17.84375c-5.523438 0-10 4.476562-10 10s4.476562 10 10 10h17.84375c5.523438 0 10-4.476562 10-10s-4.476562-10-10-10zm0 0"/></svg>